<svg height="512pt" viewBox="0 -114 512 512" width="512pt" xmlns="http://www.w3.org/2000/svg"><path d="m512 218.914062h-30v34.277344h-67v-27.667968h-30v27.667968h-124.664062v-38.335937h-15l-10.667969 53.335937 10.667969 15h266.664062zm0 0" fill="#c5d3dd"/><path d="m230.335938 214.855469v38.335937h-103.335938v-27.667968h-30v27.667968h-67v-59.667968h-30v89.667968h245.335938v-68.335937zm0 0" fill="#d9e7ec"/><path d="m512 77.878906-7.910156-4.242187c-53.925782-28.917969-113.0625-33.082031-129.84375-33.679688-35.945313-22.746093-77.230469-36.320312-119.691406-39.324219-3.074219-.21875-6.148438-.375-9.21875-.480468l-21.335938 86.703125 21.332031 79h266.667969v-38.832031l-10-15 10-15zm0 0" fill="#93bf00"/><path d="m126.554688 24.539062-25.34375 11.929688-101.210938 20.242188v13.3125l10 15-10 15v12.605468l2.414062 3.722656c31.738282 48.941407 83.167969 49.503907 85.339844 49.503907h157.582032v-165.703125c-40.867188-1.410156-81.738282 6.953125-118.78125 24.386718zm0 0" fill="#a8d32a"/><path d="m149.332031 145.523438c0 20.617187-16.714843 37.332031-37.332031 37.332031s-37.332031-16.714844-37.332031-37.332031c0-20.617188 16.714843-37.332032 37.332031-37.332032s37.332031 16.714844 37.332031 37.332032zm0 0" fill="#d9e7ec"/><path d="m112 197.855469c-28.855469 0-52.332031-23.476563-52.332031-52.332031 0-28.855469 23.476562-52.332032 52.332031-52.332032s52.335938 23.476563 52.335938 52.332032c0 28.855468-23.480469 52.332031-52.335938 52.332031zm0-74.664063c-12.3125 0-22.332031 10.019532-22.332031 22.332032 0 12.316406 10.019531 22.332031 22.332031 22.332031 12.316406 0 22.335938-10.015625 22.335938-22.332031 0-12.3125-10.019532-22.332032-22.335938-22.332032zm0 0" fill="#465a61"/><path d="m437.332031 145.523438c0 20.617187-16.714843 37.332031-37.332031 37.332031s-37.332031-16.714844-37.332031-37.332031c0-20.617188 16.714843-37.332032 37.332031-37.332032s37.332031 16.714844 37.332031 37.332032zm0 0" fill="#c5d3dd"/><path d="m400 197.855469c-28.855469 0-52.332031-23.476563-52.332031-52.332031 0-28.855469 23.476562-52.332032 52.332031-52.332032s52.335938 23.476563 52.335938 52.332032c0 28.855468-23.480469 52.332031-52.335938 52.332031zm0-74.664063c-12.3125 0-22.332031 10.019532-22.332031 22.332032 0 12.316406 10.019531 22.332031 22.332031 22.332031 12.316406 0 22.335938-10.015625 22.335938-22.332031 0-12.3125-10.019532-22.332032-22.335938-22.332032zm0 0" fill="#3b4a51"/><path d="m309.335938 35.523438h-64l-10.667969 19.332031 10.667969 10.667969h64zm0 0" fill="#3b4a51"/><path d="m202.667969 35.523438h42.667969v30h-42.667969zm0 0" fill="#465a61"/><path d="m480 97.023438h32v30h-32zm0 0" fill="#81a713"/><path d="m0 70.023438h32v30h-32zm0 0" fill="#93bf00"/></svg>