<svg height="512" viewBox="0 0 64 64" width="512" xmlns="http://www.w3.org/2000/svg"><g id="Layer_21" data-name="Layer 21"><path d="m22 42 10-12h19l7 12z" fill="#f7d881"/><path d="m59.86 28.14a5 5 0 0 0 1.14-3.14 5 5 0 0 0 -5-5h-.14.14a6 6 0 1 0 -5.74-7.76 5 5 0 1 0 -5.77 8.06 4 4 0 0 0 -2.49 3.7 3.74 3.74 0 0 0 .15 1h-.15a3 3 0 0 0 -2.24 5h11.24l5.66 9.7a5 5 0 0 0 3.34-4.7 5.39 5.39 0 0 0 -.14-1.14 3 3 0 0 0 0-5.72z" fill="#c1c8d1"/><path d="m20 42h40a2 2 0 0 1 2 2v10a0 0 0 0 1 0 0h-46a0 0 0 0 1 0 0v-8a4 4 0 0 1 4-4z" fill="#f7d881"/><circle cx="27" cy="54" fill="#a0a8b2" r="4"/><circle cx="54" cy="54" fill="#a0a8b2" r="4"/><path d="m2 58h60v4h-60z" fill="#c1c8d1"/><path d="m15 58-3-4-1-4 1-4v-5l-1-2 2-3v-5-29h-11v56z" fill="#c1c8d1"/><path d="m14 38-6-7h8l3-6 3 7 5-1-4.67 7z" fill="#e47c6f"/><path d="m27 42 7-8h14l5 8z" fill="#fff"/><path d="m22 45v-3h-2a4 4 0 0 0 -4 4v1h4a2 2 0 0 0 2-2z" fill="#a0a8b2"/><path d="m63 31a3.94 3.94 0 0 0 -1.68-3.25 5.83 5.83 0 0 0 .68-2.75 6 6 0 0 0 -2.55-4.91 7 7 0 1 0 -9.64-9.37 5.87 5.87 0 0 0 -2.81-.72 6 6 0 0 0 -4.25 10.2 5 5 0 0 0 -1.75 3.8v.13a4 4 0 0 0 -3 3.87 4.23 4.23 0 0 0 .14 1h-6.14a1 1 0 0 0 -.77.36l-9.7 11.64h-1.53a5 5 0 0 0 -5 5v8a1 1 0 0 0 1 1h6.1a4.84 4.84 0 0 0 .9 2h-7.5l-2.58-3.44-.92-3.56 1-3.76a1 1 0 0 0 0-.24v-5a1 1 0 0 0 -.11-.45l-.74-1.48.64-1 .45.53 1.52-1.3-4.59-5.3h5.83a1 1 0 0 0 .89-.55l2-4.07 2.15 5a1 1 0 0 0 1.16.62l2.63-.53-2.66 4 1.66 1.1 4-6a1 1 0 0 0 0-1.11 1 1 0 0 0 -1-.42l-4.2.84-2.68-6.25a1 1 0 0 0 -1.81-.06l-2.76 5.43h-1.38v-28a1 1 0 0 0 -1-1h-11v2h10v27h-4a1 1 0 0 0 -.91.58 1 1 0 0 0 .15 1.07l4.2 4.89-1.27 1.91a1 1 0 0 0 -.06 1l.89 1.79v4.64l-1 3.88a1 1 0 0 0 0 .48l1 4a1 1 0 0 0 .17.36l1.83 2.4h-11a1 1 0 0 0 -1 1v4a1 1 0 0 0 1 1h60a1 1 0 0 0 1-1v-4a1 1 0 0 0 -1-1h-4a4.84 4.84 0 0 0 .93-2h3.07a1 1 0 0 0 1-1v-10a3 3 0 0 0 -3-3h-1.43l-.49-.86a6 6 0 0 0 2.92-5.14 4.84 4.84 0 0 0 0-.53 4 4 0 0 0 2-3.47zm-43 12h1v2a1 1 0 0 1 -1 1h-3a3 3 0 0 1 3-3zm4 11a3 3 0 1 1 3 3 3 3 0 0 1 -3-3zm7.9 1h17.2a4.84 4.84 0 0 0 .9 2h-19a4.84 4.84 0 0 0 .9-2zm29.1 6h-58v-2h58zm-10-7a3 3 0 1 1 3 3 3 3 0 0 1 -3-3zm10-10v9h-2.1a5 5 0 0 0 -9.8 0h-17.2a5 5 0 0 0 -9.8 0h-5.1v-5h3a3 3 0 0 0 3-3v-2h37a1 1 0 0 1 1 1zm-10.59-3-2.12-2.13.81-1.22 2.1 3.35zm-3.95-3h-1.84l-.73-1.45-1.78.9 1 2a1 1 0 0 0 .89.55h2.59l1 1h-7.18l-2.41-2.41v-1.59a1 1 0 0 0 -.29-.71l-1.3-1.29h11l.49.79zm-12.41-2.54 1.54 1.54-2.3 2.29 1.42 1.42 1.36-1.36a1.13 1.13 0 0 0 .22.36l1.3 1.29h-8.39zm19.5 5.54-4.7-7.53a1 1 0 0 0 -.85-.47h-14a1 1 0 0 0 -.75.34l-6.7 7.66h-2.41l8.33-10h18l5.83 10zm6-8.1a1 1 0 0 0 -.69 1.19 3.86 3.86 0 0 1 .14.91 4 4 0 0 1 -1.93 3.42l-5.21-8.92a1 1 0 0 0 -.86-.5h-10.73a2 2 0 0 1 -.27-1 2 2 0 0 1 1.94-2h.17a.94.94 0 0 0 .82-.37 1 1 0 0 0 .18-.88 3.24 3.24 0 0 1 -.11-.75 3 3 0 0 1 1.87-2.77 1 1 0 0 0 .62-.86 1 1 0 0 0 -.5-.93 4 4 0 0 1 2.01-7.44 3.92 3.92 0 0 1 2.61 1 1 1 0 0 0 1.61-.47 5 5 0 1 1 4.78 6.47h-.11a1 1 0 0 0 -.81.4 1 1 0 0 0 -.17.9 1 1 0 0 0 1 .72c.09-.02.09-.02.09-.02a4 4 0 0 1 3.09 6.51 1 1 0 0 0 .48 1.59 2 2 0 0 1 0 3.8z"/></g></svg>