<?xml version="1.0" encoding="iso-8859-1"?>
<!-- Generator: Adobe Illustrator 19.0.0, SVG Export Plug-In . SVG Version: 6.00 Build 0)  -->
<svg version="1.1" id="Capa_1" xmlns="http://www.w3.org/2000/svg" xmlns:xlink="http://www.w3.org/1999/xlink" x="0px" y="0px"
	 viewBox="0 0 511.999 511.999" style="enable-background:new 0 0 511.999 511.999;" xml:space="preserve">
<polyline style="fill:#72D8FF;" points="437.912,457.994 502,457.994 502,363.496 448.001,352.997 405.002,275.999 161.997,275.999 
	111.998,352.997 10.012,378.15 10.012,457.994 64.01,457.994 "/>
<polyline style="fill:#4DBAF6;" points="437.912,457.994 502,457.994 502,363.496 448.001,352.997 405.002,275.999 161.997,275.999 
	111.998,352.997 10.012,378.15 10.012,457.994 64.01,457.994 "/>
<g>
	<rect x="296.003" y="276.003" style="fill:#FFFFFF;" width="87.998" height="76.998"/>
	<polygon style="fill:#FFFFFF;" points="256.133,352.997 256.133,275.999 161.997,275.999 111.998,352.997 	"/>
</g>
<g>
	<circle style="fill:#6A80FF;" cx="117.997" cy="457.998" r="43.999"/>
	<circle style="fill:#6A80FF;" cx="393.911" cy="457.998" r="43.999"/>
</g>
<polygon style="fill:#7D9BFF;" points="297.768,136.239 214.244,136.239 144.009,66.003 368.003,66.003 "/>
<g>
	<rect x="10" y="10.009" style="fill:#ADE5FF;" width="491.998" height="55.999"/>
	<rect x="144.007" y="10.009" style="fill:#ADE5FF;" width="223.995" height="55.999"/>
</g>
<polygon style="fill:#72D8FF;" points="289.505,183.985 256.006,204 222.507,183.985 222.507,136.239 289.505,136.239 "/>
<path d="M258.676,76.003c2.63,0,5.21-1.07,7.07-2.93c1.86-1.86,2.93-4.44,2.93-7.07s-1.07-5.21-2.93-7.07
	c-1.86-1.86-4.44-2.93-7.07-2.93c-2.64,0-5.21,1.07-7.07,2.93c-1.87,1.86-2.93,4.44-2.93,7.07s1.06,5.21,2.93,7.07
	C253.466,74.933,256.046,76.003,258.676,76.003z"/>
<path d="M294.634,192.568c3.021-1.805,4.871-5.065,4.871-8.584v-37.906c2.006-0.354,3.874-1.308,5.333-2.768l67.307-67.307h129.854
	c5.523,0,10-4.477,10-10V10.005c0-5.523-4.477-10-10-10H10c-5.523,0-10,4.477-10,10v55.999c0,5.523,4.477,10,10,10h129.867
	l67.307,67.307c1.46,1.46,3.327,2.414,5.333,2.768v37.906c0,3.519,1.85,6.779,4.871,8.584l28.755,17.182v56.249h-84.136
	c-3.386,0-6.542,1.714-8.387,4.554l-47.846,73.682L7.617,368.442c-4.467,1.102-7.605,5.108-7.605,9.709v79.844
	c0,5.523,4.477,10,10,10H64.01c0.312,0,0.619-0.019,0.924-0.047c4.686,25.034,26.689,44.046,53.064,44.046
	c29.775,0,53.999-24.223,53.999-53.999s-24.223-53.999-53.999-53.999c-26.374,0-48.378,19.011-53.064,44.046
	c-0.305-0.028-0.612-0.047-0.924-0.047H20.012v-62.011l94.381-23.278c2.466-0.608,4.609-2.132,5.992-4.263l47.042-72.444h78.706
	v56.999h-73.125c-5.523,0-10,4.477-10,10s4.477,10,10,10h83.125c5.523,0,10-4.477,10-10v-66.998h133.001l40.137,71.873
	c1.436,2.571,3.932,4.378,6.822,4.941l45.908,8.926v76.255h-45.033c-4.705-25.011-26.697-43.999-53.056-43.999
	s-48.351,18.988-53.056,43.999h-96.518c-5.523,0-10,4.477-10,10s4.477,10,10,10h96.518c4.705,25.011,26.697,43.999,53.056,43.999
	s48.351-18.988,53.056-43.999h55.033c5.523,0,10-4.477,10-10v-94.498c0-4.787-3.393-8.902-8.091-9.816l-49.441-9.613l-40.735-72.944
	c-1.767-3.164-5.107-5.125-8.731-5.125H266.133v-56.401L294.634,192.568z M117.998,423.995c18.748,0,33.999,15.252,33.999,33.999
	c0,18.748-15.252,33.999-33.999,33.999s-33.999-15.252-33.999-33.999C83.999,439.247,99.251,423.995,117.998,423.995z
	 M393.913,491.993c-18.748,0-33.999-15.252-33.999-33.999c0-18.748,15.252-33.999,33.999-33.999
	c18.748,0,33.999,15.252,33.999,33.999C427.912,476.742,412.659,491.993,393.913,491.993z M492,56.004H377.997V20.005H492
	L492,56.004L492,56.004z M20,20.005h114.003v35.999H20V20.005z M168.151,76.003h50.19c5.523,0,10-4.477,10-10s-4.477-10-10-10
	h-64.338V20.005h203.995v35.999h-64.326c-5.523,0-10,4.477-10,10s4.477,10,10,10h50.19l-50.236,50.236h-4.121h-66.998h-4.121
	L168.151,76.003z M232.507,146.239h46.999v32.071l-23.499,14.042l-23.499-14.042V146.239z"/>
<path d="M201.007,447.994c-2.63,0-5.21,1.07-7.07,2.93c-1.86,1.86-2.93,4.44-2.93,7.07s1.07,5.21,2.93,7.07
	c1.86,1.86,4.44,2.93,7.07,2.93s5.21-1.07,7.07-2.93c1.86-1.86,2.93-4.44,2.93-7.07s-1.07-5.21-2.93-7.07
	C206.217,449.064,203.637,447.994,201.007,447.994z"/>
<path d="M296.005,297.998c-5.523,0-10,4.477-10,10v44.999c0,5.523,4.477,10,10,10h87.998c5.523,0,10-4.477,10-10v-44.999
	c0-5.523-4.477-10-10-10c-5.523,0-10,4.477-10,10v34.999h-67.998v-34.999C306.005,302.475,301.528,297.998,296.005,297.998z"/>
<g>
</g>
<g>
</g>
<g>
</g>
<g>
</g>
<g>
</g>
<g>
</g>
<g>
</g>
<g>
</g>
<g>
</g>
<g>
</g>
<g>
</g>
<g>
</g>
<g>
</g>
<g>
</g>
<g>
</g>
</svg>
