<?xml version="1.0" encoding="iso-8859-1"?>
<!-- Generator: Adobe Illustrator 19.0.0, SVG Export Plug-In . SVG Version: 6.00 Build 0)  -->
<svg version="1.1" id="Capa_1" xmlns="http://www.w3.org/2000/svg" xmlns:xlink="http://www.w3.org/1999/xlink" x="0px" y="0px"
	 viewBox="0 0 478.5 478.5" style="enable-background:new 0 0 478.5 478.5;" xml:space="preserve">
<path style="fill:#ED664C;" d="M239.35,62.2c9.2,0,18.2,2.1,26.3,6c8.1,3.9,15.3,9.6,21,16.8l65.9,83.3c4.3,5.5,6.7,12.4,6.7,19.5
	v249.9c0,17.3-14,31.3-31.3,31.3h-177.3c-17.3,0-31.3-14-31.3-31.3V187.8c0-7.1,2.4-13.9,6.7-19.5l65.9-83.3
	C203.45,70.6,220.85,62.2,239.35,62.2z M278.45,179.5c0-21.6-17.5-39.1-39.1-39.1s-39.1,17.5-39.1,39.1s17.5,39.1,39.1,39.1
	S278.45,201.1,278.45,179.5z"/>
<path d="M150.65,478.5h177.3c22.8,0,41.3-18,41.3-40.8V187.8c0-9.2-3.2-18.3-8.9-25.7l-65.9-83.3c-6.5-8.2-14.9-15-24.5-19.7
	c-6.5-3.2-13.5-5.3-20.7-6.4V10c0-5.5-4.5-10-10-10s-10,4.5-10,10v42.9c-17.7,2.5-33.8,11.7-45.1,26l-66,83.3
	c-5.7,7.3-8.9,16.4-8.9,25.6v249.9C109.35,460.5,127.95,478.5,150.65,478.5z M239.35,150.4c16.1,0,29.1,13.1,29.1,29.1
	c0,16.1-13.1,29.1-29.1,29.1s-29.1-13.1-29.1-29.1S223.25,150.4,239.35,150.4z M129.35,187.8c0-4.8,1.7-9.5,4.6-13.2l65.9-83.3
	c7.5-9.5,17.9-15.8,29.5-18.1v58.2c-22.3,4.6-39.1,24.4-39.1,48.1c0,27.1,22,49.1,49.1,49.1s49.1-22,49.1-49.1
	c0-23.7-16.8-43.5-39.1-48.1V73.2c4.1,0.8,8.2,2.2,11.9,4c6.9,3.3,12.9,8.2,17.5,14.1l65.9,83.2c3,3.8,4.6,8.5,4.6,13.3v249.9
	c0,11.7-9.6,20.8-21.3,20.8h-177.3c-11.7,0-21.3-9.1-21.3-20.8V187.8z"/>
<path d="M239.35,388.2c-7.4,0-13.4-6-13.4-13.4c0-5.5-4.5-10-10-10s-10,4.5-10,10c0,14.9,9.9,27.6,23.4,31.9v5c0,5.5,4.5,10,10,10
	s10-4.5,10-10v-5c13.6-4.3,23.4-16.9,23.4-31.9c0-18.4-15-33.4-33.4-33.4c-7.4,0-13.4-6-13.4-13.4s6-13.4,13.4-13.4
	s13.4,6,13.4,13.4c0,5.5,4.5,10,10,10s10-4.5,10-10c0-14.9-9.9-27.6-23.4-31.9v-4.4c0-5.5-4.5-10-10-10s-10,4.5-10,10v4.4
	c-13.6,4.3-23.4,16.9-23.4,31.9c0,18.4,15,33.4,33.4,33.4c7.4,0,13.4,6,13.4,13.4S246.75,388.2,239.35,388.2z"/>
<g>
</g>
<g>
</g>
<g>
</g>
<g>
</g>
<g>
</g>
<g>
</g>
<g>
</g>
<g>
</g>
<g>
</g>
<g>
</g>
<g>
</g>
<g>
</g>
<g>
</g>
<g>
</g>
<g>
</g>
</svg>
