<?xml version="1.0" encoding="iso-8859-1"?>
<!-- Generator: Adobe Illustrator 19.0.0, SVG Export Plug-In . SVG Version: 6.00 Build 0)  -->
<svg version="1.1" id="Capa_1" xmlns="http://www.w3.org/2000/svg" xmlns:xlink="http://www.w3.org/1999/xlink" x="0px" y="0px"
	 viewBox="0 0 512 512" style="enable-background:new 0 0 512 512;" xml:space="preserve">
<path style="fill:#FFDA44;" d="M486.4,119.467H247.467c-9.429,0-17.067,7.637-17.067,17.067v51.2h34.133
	c9.429,0,17.067,7.637,17.067,17.067v25.6l0,0v59.733h136.533l51.2,51.2v-51.2H486.4c9.429,0,17.067-7.637,17.067-17.067V136.533
	C503.467,127.104,495.829,119.467,486.4,119.467z"/>
<path style="fill:#FFAF46;" d="M281.6,204.8c0-9.429-7.637-17.067-17.067-17.067H25.6c-9.412,0.026-17.041,7.654-17.067,17.067
	v136.533c0.026,9.412,7.654,17.041,17.067,17.067h17.067v51.2l51.2-51.2h170.667c9.429,0,17.067-7.637,17.067-17.067V204.8z"/>
<g>
	<path style="fill:#231F20;" d="M392.533,443.733H281.6V460.8h110.933v8.533c0,14.14-11.46,25.6-25.6,25.6H145.067
		c-14.14,0-25.6-11.46-25.6-25.6V460.8H230.4v-17.067H119.467v-68.267H102.4v93.867c0.026,23.552,19.115,42.641,42.667,42.667
		h221.867c23.552-0.026,42.641-19.115,42.667-42.667v-153.6h-17.067V443.733z"/>
	<path style="fill:#231F20;" d="M119.467,68.267h273.067v25.6H409.6v-51.2C409.574,19.115,390.485,0.026,366.933,0H145.067
		c-23.552,0.026-42.641,19.115-42.667,42.667v119.398h17.067V68.267z M145.067,17.067h221.867c14.14,0,25.6,11.46,25.6,25.6V51.2
		H119.467v-8.533C119.467,28.527,130.927,17.067,145.067,17.067z"/>
	<rect x="247.467" y="443.733" style="fill:#231F20;" width="17.067" height="17.067"/>
	<rect x="247.467" y="25.6" style="fill:#231F20;" width="17.067" height="17.067"/>
	<path style="fill:#231F20;" d="M486.4,110.933H247.467c-14.14,0-25.6,11.46-25.6,25.6V179.2H25.6C11.46,179.2,0,190.66,0,204.8
		v136.533c0,14.14,11.46,25.6,25.6,25.6h8.533V409.6c0,4.71,3.823,8.533,8.533,8.533c2.261,0,4.429-0.896,6.033-2.5l48.7-48.7
		h167.134c14.14,0,25.6-11.46,25.6-25.6v-42.667h124.467l48.7,48.7c3.337,3.328,8.738,3.328,12.066,0
		c1.604-1.604,2.5-3.772,2.5-6.033v-42.667h8.533c14.14,0,25.6-11.46,25.6-25.6V136.533C512,122.394,500.54,110.933,486.4,110.933z
		 M273.067,341.333c0,4.71-3.823,8.533-8.533,8.533H93.867c-2.261,0-4.437,0.896-6.033,2.5L51.2,389.001V358.4
		c0-4.71-3.823-8.533-8.533-8.533H25.6c-4.71,0-8.533-3.823-8.533-8.533V204.8c0-4.71,3.823-8.533,8.533-8.533h238.933
		c4.71,0,8.533,3.823,8.533,8.533V341.333z M494.933,273.067c0,4.71-3.823,8.533-8.533,8.533h-17.067
		c-4.71,0-8.533,3.823-8.533,8.533v30.6L424.166,284.1c-1.596-1.604-3.772-2.5-6.033-2.5h-128v-42.667h8.533
		c4.71,0,8.533-3.823,8.533-8.533s-3.823-8.533-8.533-8.533h-8.533V204.8h8.533c4.71,0,8.533-3.823,8.533-8.533
		s-3.823-8.533-8.533-8.533h-15.189c-4.813-5.41-11.708-8.508-18.944-8.533h-25.6v-42.667c0-4.71,3.823-8.533,8.533-8.533H486.4
		c4.71,0,8.533,3.823,8.533,8.533V273.067z"/>
	<path style="fill:#231F20;" d="M76.8,230.4H59.733c-4.71,0-8.533,3.823-8.533,8.533s3.823,8.533,8.533,8.533H76.8
		c4.71,0,8.533-3.823,8.533-8.533S81.51,230.4,76.8,230.4z"/>
	<path style="fill:#231F20;" d="M230.4,230.4h-128c-4.71,0-8.533,3.823-8.533,8.533s3.823,8.533,8.533,8.533h128
		c4.71,0,8.533-3.823,8.533-8.533S235.11,230.4,230.4,230.4z"/>
	<path style="fill:#231F20;" d="M76.8,264.533H59.733c-4.71,0-8.533,3.823-8.533,8.533c0,4.71,3.823,8.533,8.533,8.533H76.8
		c4.71,0,8.533-3.823,8.533-8.533S81.51,264.533,76.8,264.533z"/>
	<path style="fill:#231F20;" d="M230.4,264.533h-128c-4.71,0-8.533,3.823-8.533,8.533c0,4.71,3.823,8.533,8.533,8.533h128
		c4.71,0,8.533-3.823,8.533-8.533S235.11,264.533,230.4,264.533z"/>
	<path style="fill:#231F20;" d="M76.8,298.667H59.733c-4.71,0-8.533,3.823-8.533,8.533s3.823,8.533,8.533,8.533H76.8
		c4.71,0,8.533-3.823,8.533-8.533S81.51,298.667,76.8,298.667z"/>
	<path style="fill:#231F20;" d="M230.4,298.667h-128c-4.71,0-8.533,3.823-8.533,8.533s3.823,8.533,8.533,8.533h128
		c4.71,0,8.533-3.823,8.533-8.533S235.11,298.667,230.4,298.667z"/>
	<path style="fill:#231F20;" d="M298.667,153.6H281.6c-4.71,0-8.533,3.823-8.533,8.533s3.823,8.533,8.533,8.533h17.067
		c4.71,0,8.533-3.823,8.533-8.533S303.377,153.6,298.667,153.6z"/>
	<path style="fill:#231F20;" d="M452.267,153.6h-128c-4.71,0-8.533,3.823-8.533,8.533s3.823,8.533,8.533,8.533h128
		c4.71,0,8.533-3.823,8.533-8.533S456.977,153.6,452.267,153.6z"/>
	<path style="fill:#231F20;" d="M452.267,187.733h-128c-4.71,0-8.533,3.823-8.533,8.533s3.823,8.533,8.533,8.533h128
		c4.71,0,8.533-3.823,8.533-8.533S456.977,187.733,452.267,187.733z"/>
	<path style="fill:#231F20;" d="M452.267,221.867h-128c-4.71,0-8.533,3.823-8.533,8.533s3.823,8.533,8.533,8.533h128
		c4.71,0,8.533-3.823,8.533-8.533S456.977,221.867,452.267,221.867z"/>
</g>
<g>
</g>
<g>
</g>
<g>
</g>
<g>
</g>
<g>
</g>
<g>
</g>
<g>
</g>
<g>
</g>
<g>
</g>
<g>
</g>
<g>
</g>
<g>
</g>
<g>
</g>
<g>
</g>
<g>
</g>
</svg>
