<?xml version="1.0"?>
<svg xmlns="http://www.w3.org/2000/svg" width="512" height="512" viewBox="0 0 128 128"><g><g><rect x="1.75" y="88" width="124.5" height="10.628" rx="5.314" fill="#fedb41"/><path d="M109,59.986l-3.689-29.5A12,12,0,0,0,93.4,19.979H34.6a12,12,0,0,0-11.908,10.51L19,59.986l-6.659,7.8A15,15,0,0,0,8.75,77.526V88h110.5V77.526a15,15,0,0,0-3.591-9.737Z" fill="#0d70b2"/><path d="M48.5,8.674h31a4,4,0,0,1,4,4v7.3a0,0,0,0,1,0,0h-39a0,0,0,0,1,0,0v-7.3A4,4,0,0,1,48.5,8.674Z" fill="#fedb41"/><path d="M8.75,98.628h22.7a0,0,0,0,1,0,0v15.7a5,5,0,0,1-5,5H13.75a5,5,0,0,1-5-5v-15.7A0,0,0,0,1,8.75,98.628Z" fill="#6e6e6e"/><path d="M101.55,98.628h12.7a5,5,0,0,1,5,5v15.7a0,0,0,0,1,0,0H96.55a0,0,0,0,1,0,0v-15.7A5,5,0,0,1,101.55,98.628Z" transform="translate(215.8 217.954) rotate(180)" fill="#6e6e6e"/><path d="M97.373,31.482a4.007,4.007,0,0,0-3.97-3.5H34.6a4.006,4.006,0,0,0-3.97,3.5l-3.565,28.5h73.876Z" fill="#e1e4fb"/><rect x="21.437" y="69.453" width="11.563" height="10.547" rx="3" fill="#17ace8"/><rect x="95" y="69.453" width="11.562" height="10.547" rx="3" transform="translate(201.562 149.453) rotate(180)" fill="#17ace8"/><rect x="48.211" y="69.453" width="31.578" height="10.547" rx="3" transform="translate(128 149.453) rotate(180)" fill="#1689fc"/><path d="M20.649,46.805l-3.411-2.237a15,15,0,0,0-8.225-2.456H5.625a4,4,0,0,0-4,4v5.125a4,4,0,0,0,4,4H19.594Z" fill="#c5c9f7"/><path d="M107.351,46.805l3.411-2.237a15,15,0,0,1,8.225-2.456h3.388a4,4,0,0,1,4,4v5.125a4,4,0,0,1-4,4H108.406Z" fill="#c5c9f7"/></g><g><path d="M33.875,58.236H29.044L32.364,31.7A2.254,2.254,0,0,1,34.6,29.729H93.4A2.253,2.253,0,0,1,95.636,31.7l3.32,26.536H61.125a1.75,1.75,0,0,0,0,3.5h39.813a1.749,1.749,0,0,0,1.736-1.967l-3.565-28.5A5.76,5.76,0,0,0,93.4,26.229H34.6a5.759,5.759,0,0,0-5.706,5.037l-3.565,28.5a1.749,1.749,0,0,0,1.736,1.967h6.813a1.75,1.75,0,0,0,0-3.5Z"/><path d="M52,59.986a1.751,1.751,0,0,0-1.75-1.75h-5.5a1.75,1.75,0,0,0,0,3.5h5.5A1.751,1.751,0,0,0,52,59.986Z"/><path d="M30,67.7H24.437a4.755,4.755,0,0,0-4.75,4.75V77a4.756,4.756,0,0,0,4.75,4.75H30A4.756,4.756,0,0,0,34.75,77V72.453A4.755,4.755,0,0,0,30,67.7ZM31.25,77A1.251,1.251,0,0,1,30,78.25H24.437A1.251,1.251,0,0,1,23.187,77V72.453a1.251,1.251,0,0,1,1.25-1.25H30a1.251,1.251,0,0,1,1.25,1.25Z"/><path d="M103.562,67.7H98a4.755,4.755,0,0,0-4.75,4.75V77A4.756,4.756,0,0,0,98,81.75h5.562a4.755,4.755,0,0,0,4.75-4.75V72.453A4.754,4.754,0,0,0,103.562,67.7Zm1.25,9.3a1.25,1.25,0,0,1-1.25,1.25H98A1.25,1.25,0,0,1,96.75,77V72.453A1.25,1.25,0,0,1,98,71.2h5.562a1.25,1.25,0,0,1,1.25,1.25Z"/><path d="M76.789,67.7H51.211a4.755,4.755,0,0,0-4.75,4.75V77a4.756,4.756,0,0,0,4.75,4.75H76.789A4.756,4.756,0,0,0,81.539,77V72.453A4.755,4.755,0,0,0,76.789,67.7Zm1.25,9.3a1.251,1.251,0,0,1-1.25,1.25H51.211A1.25,1.25,0,0,1,49.961,77V72.453a1.25,1.25,0,0,1,1.25-1.25H76.789a1.251,1.251,0,0,1,1.25,1.25Z"/><path d="M128.125,51.237V46.112a5.757,5.757,0,0,0-5.75-5.75h-3.388a16.7,16.7,0,0,0-9.184,2.743l-1.064.7-1.692-13.53A13.771,13.771,0,0,0,93.4,18.229H85.25V14.875a1.75,1.75,0,0,0-3.5,0v3.354H46.25V12.674a2.253,2.253,0,0,1,2.25-2.25H75.125a1.75,1.75,0,1,0,0-3.5H48.5a5.757,5.757,0,0,0-5.75,5.75v5.555H34.6A13.771,13.771,0,0,0,20.953,30.272L19.261,43.8l-1.064-.7a16.7,16.7,0,0,0-9.184-2.743H5.625a5.757,5.757,0,0,0-5.75,5.75v5.125a5.757,5.757,0,0,0,5.75,5.75H17.611l-.282,2.261-6.32,7.4A16.767,16.767,0,0,0,7,77.526v8.727a7.061,7.061,0,0,0,0,14.122v13.951a6.758,6.758,0,0,0,6.75,6.75h12.7a6.758,6.758,0,0,0,6.75-6.75V100.378H94.8v13.948a6.758,6.758,0,0,0,6.75,6.75h12.7a6.758,6.758,0,0,0,6.75-6.75V100.375a7.061,7.061,0,0,0,0-14.122V77.526a16.767,16.767,0,0,0-4.009-10.874l-6.32-7.4-.283-2.261h11.987A5.757,5.757,0,0,0,128.125,51.237Zm-124.75,0V46.112a2.252,2.252,0,0,1,2.25-2.25H9.013a13.214,13.214,0,0,1,7.265,2.169l2.5,1.639-.727,5.817H5.625A2.253,2.253,0,0,1,3.375,51.237ZM29.7,114.326a3.254,3.254,0,0,1-3.25,3.25H13.75a3.254,3.254,0,0,1-3.25-3.25V100.378H29.7Zm87.8,0a3.254,3.254,0,0,1-3.25,3.25h-12.7a3.254,3.254,0,0,1-3.25-3.25V100.378h19.2Zm7-21.012a3.568,3.568,0,0,1-3.564,3.564H7.064a3.564,3.564,0,0,1,0-7.128H120.936A3.568,3.568,0,0,1,124.5,93.314ZM114.329,68.925a13.266,13.266,0,0,1,3.171,8.6V86.25H10.5V77.526a13.26,13.26,0,0,1,3.171-8.6l6.66-7.8a1.747,1.747,0,0,0,.405-.919l3.69-29.5A10.265,10.265,0,0,1,34.6,21.729H93.4a10.266,10.266,0,0,1,10.171,8.978l2.041,16.313v0l1.054,8.432v0l.594,4.746a1.747,1.747,0,0,0,.405.919Zm-4.411-15.7-.7-5.555,2.5-1.639a13.214,13.214,0,0,1,7.265-2.169h3.388a2.252,2.252,0,0,1,2.25,2.25v5.125a2.253,2.253,0,0,1-2.25,2.25H109.951Z"/></g></g></svg>
